<svg width="512" height="512" viewBox="0 0 512 512" fill="none" xmlns="http://www.w3.org/2000/svg">
<path d="M185.379 204.783C219.507 204.783 247.172 165.261 247.172 116.507C247.172 67.754 219.507 28.2315 185.379 28.2315C151.252 28.2315 123.586 67.754 123.586 116.507C123.586 165.261 151.252 204.783 185.379 204.783Z" fill="#FFB334"/>
<path d="M326.621 204.783C360.748 204.783 388.414 165.261 388.414 116.507C388.414 67.754 360.748 28.2315 326.621 28.2315C292.493 28.2315 264.828 67.754 264.828 116.507C264.828 165.261 292.493 204.783 326.621 204.783Z" fill="#FFB334"/>
<path d="M105.931 222.438C105.931 271.193 99.8753 310.714 70.6207 310.714C41.3661 310.714 0 271.193 0 222.438C0 173.684 23.7109 134.163 52.9655 134.163C82.2201 134.163 105.931 173.684 105.931 222.438Z" fill="#FFB334"/>
<path d="M512 222.438C512 271.193 470.634 310.714 441.379 310.714C412.125 310.714 406.069 271.193 406.069 222.438C406.069 173.684 429.78 134.163 459.034 134.163C488.289 134.163 512 173.684 512 222.438Z" fill="#FFB334"/>
<path d="M397.241 373.77C397.241 426.656 369.876 471.094 308.965 483.691C297.684 486.021 268.191 434.3 256 434.3C243.809 434.3 214.316 486.021 203.034 483.691C142.124 471.094 114.759 426.656 114.759 373.77C114.759 311.085 177.991 222.438 256 222.438C334.009 222.438 397.241 311.085 397.241 373.77Z" fill="#FFB334"/>
<path d="M150.069 381.335H149.892C145.018 381.239 141.144 377.209 141.241 372.334C141.241 372.333 141.241 372.332 141.241 372.331C142.221 323.594 194.021 248.921 256 248.921C260.875 248.921 264.828 252.874 264.828 257.749C264.828 262.624 260.875 266.576 256 266.576C204.491 266.576 159.726 331.751 158.896 372.684C158.8 377.491 154.877 381.336 150.069 381.335Z" fill="#FFEEAD"/>
</svg>
